<svg width="102" height="102" viewBox="0 0 102 102" fill="none" xmlns="http://www.w3.org/2000/svg">
<g clip-path="url(#clip0_3_208)">
<path d="M45.5502 50.3923L51.0002 46.3939L56.4493 42.3954C58.5048 40.8865 62.2906 39.351 66.3275 40.9863C69.7724 42.4034 72.5346 44.0573 74.7768 45.8337L63.6783 53.9796C62.6924 54.7022 62.4794 56.0873 63.2034 57.0733C63.9271 58.0594 65.3123 58.2722 66.2984 57.5484L78.0794 48.9035C83.1145 54.4282 84.3997 60.4624 85.9657 64.1003C86.6098 65.5972 87.3628 67.7781 88.1412 70.2502L81.3765 75.2147C80.3904 75.9385 80.1776 77.325 80.9014 78.311C81.6239 79.2955 83.0103 79.5085 83.9964 78.7859L89.4959 74.7501C91.1683 80.5303 92.7465 86.7041 93.4211 89.6129C94.9871 96.351 92.6601 98.9058 90.6308 100.395C88.6002 101.885 85.4681 103.338 79.5084 99.8238C75.0443 97.1905 61.9979 89.0154 57.4059 85.0609C57.0174 84.7256 56.5863 84.3822 56.1273 84.027L67.4041 75.7518C68.3888 75.028 68.6016 73.6415 67.879 72.6556C67.1553 71.6708 65.7701 71.458 64.784 72.1804L52.4908 81.2032C47.7697 77.3298 42.2733 71.3676 41.2459 59.3936C40.8959 55.052 43.4959 51.9011 45.5502 50.3923Z" fill="#F57F17"/>
<path d="M12.1112 26.4362C19.9698 26.4202 35.2116 37.5573 40.1961 40.9303C44.5697 44.9195 45.7075 42.2968 43.431 39.9697C40.2842 36.7537 37.511 32.6181 24.8732 25.9533C18.5329 22.6108 16.4426 21.0871 18.4398 18.9782C20.4384 16.8693 25.9296 19.5225 24.4953 17.7486C23.0621 15.9724 20.9065 9.45635 22.9557 7.95145C25.0037 6.44795 30.5734 10.4582 31.8361 12.3596C33.1001 14.2609 32.2166 8.22557 34.8272 6.95217C37.4365 5.67737 38.2641 8.13095 39.5534 15.1805C42.1202 29.2342 45.2335 33.1209 47.3572 37.0888C48.894 39.9575 51.7374 39.6567 49.244 34.2892C47.5194 28.5236 41.4679 10.6445 43.8404 3.15048C46.2115 -4.34214 53.2025 3.31145 51.554 7.71577C56.5729 2.94448 58.2589 10.9624 54.0036 19.4836C52.971 21.5527 50.9473 30.1709 55.941 39.6593L49.6247 44.2935L43.3083 48.9294C35.7559 41.3196 26.9261 40.665 24.6441 41.0295C15.2408 42.5318 8.09558 38.5228 14.1524 35.1643C9.45665 35.415 4.25286 26.4521 12.1112 26.4362Z" fill="#F57F17"/>
</g>
<defs>
<clipPath id="clip0_3_208">
<rect width="102" height="102" fill="white" transform="matrix(-1 0 0 1 102 0)"/>
</clipPath>
</defs>
</svg>
