<svg width="583" height="116" viewBox="0 0 583 116" fill="none" xmlns="http://www.w3.org/2000/svg">
<path d="M118.068 93V23.1818H145.614C150.909 23.1818 155.42 24.1932 159.148 26.2159C162.875 28.2159 165.716 31 167.67 34.5682C169.648 38.1136 170.636 42.2045 170.636 46.8409C170.636 51.4773 169.636 55.5682 167.636 59.1136C165.636 62.6591 162.739 65.4205 158.943 67.3977C155.17 69.375 150.602 70.3636 145.239 70.3636H127.682V58.5341H142.852C145.693 58.5341 148.034 58.0455 149.875 57.0682C151.739 56.0682 153.125 54.6932 154.034 52.9432C154.966 51.1705 155.432 49.1364 155.432 46.8409C155.432 44.5227 154.966 42.5 154.034 40.7727C153.125 39.0227 151.739 37.6705 149.875 36.7159C148.011 35.7386 145.648 35.25 142.784 35.25H132.83V93H118.068ZM187.759 93.9545V81.9545H191.543C193.429 81.9545 194.952 81.7273 196.111 81.2727C197.27 80.7955 198.19 80.1023 198.872 79.1932C199.577 78.2614 200.168 77.1023 200.645 75.7159L201.497 73.4318L176.134 23.1818H191.406L207.838 57.5455L221.577 23.1818H236.645L212.577 79.2955C211.418 81.8864 210.043 84.2955 208.452 86.5227C206.884 88.75 204.872 90.5455 202.418 91.9091C199.963 93.2727 196.827 93.9545 193.009 93.9545H187.759ZM244.631 93V23.1818H290.96V35.3523H259.392V48.9886H270.744C276.267 48.9886 281.028 49.8864 285.028 51.6818C289.051 53.4545 292.153 55.9659 294.335 59.2159C296.517 62.4659 297.608 66.2955 297.608 70.7045C297.608 75.0909 296.517 78.9659 294.335 82.3295C292.153 85.6705 289.051 88.2841 285.028 90.1705C281.028 92.0568 276.267 93 270.744 93H244.631ZM259.392 81.1364H270.744C273.381 81.1364 275.608 80.6591 277.426 79.7045C279.244 78.7273 280.619 77.4432 281.551 75.8523C282.506 74.2386 282.983 72.4773 282.983 70.5682C282.983 67.7955 281.926 65.4545 279.812 63.5455C277.722 61.6136 274.699 60.6477 270.744 60.6477H259.392V81.1364ZM307.162 23.1818H321.889V67.0909H322.469L352.639 23.1818H365.56V93H350.798V49.0568H350.287L319.946 93H307.162V23.1818Z" fill="#F57F17"/>
<path d="M419.994 93L397.562 63.2386H392.517V93H377.756V23.1818H392.517V51.0682H395.483L418.665 23.1818H437.04L409.801 55.5682L438.301 93H419.994ZM505.946 58.0909C505.946 65.7045 504.503 72.1818 501.616 77.5227C498.753 82.8636 494.844 86.9432 489.889 89.7614C484.957 92.5568 479.412 93.9545 473.253 93.9545C467.048 93.9545 461.48 92.5455 456.548 89.7273C451.616 86.9091 447.719 82.8295 444.855 77.4886C441.991 72.1477 440.56 65.6818 440.56 58.0909C440.56 50.4773 441.991 44 444.855 38.6591C447.719 33.3182 451.616 29.25 456.548 26.4545C461.48 23.6364 467.048 22.2273 473.253 22.2273C479.412 22.2273 484.957 23.6364 489.889 26.4545C494.844 29.25 498.753 33.3182 501.616 38.6591C504.503 44 505.946 50.4773 505.946 58.0909ZM490.98 58.0909C490.98 53.1591 490.241 49 488.764 45.6136C487.31 42.2273 485.253 39.6591 482.594 37.9091C479.935 36.1591 476.821 35.2841 473.253 35.2841C469.685 35.2841 466.571 36.1591 463.912 37.9091C461.253 39.6591 459.185 42.2273 457.707 45.6136C456.253 49 455.526 53.1591 455.526 58.0909C455.526 63.0227 456.253 67.1818 457.707 70.5682C459.185 73.9545 461.253 76.5227 463.912 78.2727C466.571 80.0227 469.685 80.8977 473.253 80.8977C476.821 80.8977 479.935 80.0227 482.594 78.2727C485.253 76.5227 487.31 73.9545 488.764 70.5682C490.241 67.1818 490.98 63.0227 490.98 58.0909ZM516.881 93V23.1818H531.642V51.9886H561.608V23.1818H576.335V93H561.608V64.1591H531.642V93H516.881Z" fill="#2E7D32"/>
<g clip-path="url(#clip0_4615_2)">
<path d="M45.5502 50.3923L51.0002 46.3939L56.4493 42.3954C58.5048 40.8865 62.2906 39.351 66.3275 40.9863C69.7724 42.4034 72.5346 44.0573 74.7768 45.8337L63.6783 53.9796C62.6924 54.7022 62.4794 56.0873 63.2034 57.0733C63.9271 58.0594 65.3123 58.2722 66.2984 57.5484L78.0794 48.9035C83.1145 54.4282 84.3997 60.4624 85.9657 64.1003C86.6098 65.5972 87.3628 67.7781 88.1412 70.2502L81.3765 75.2147C80.3904 75.9385 80.1776 77.325 80.9014 78.311C81.6239 79.2955 83.0103 79.5085 83.9964 78.7859L89.4959 74.7501C91.1683 80.5303 92.7465 86.7041 93.4211 89.6129C94.9871 96.351 92.6601 98.9058 90.6308 100.395C88.6002 101.885 85.4681 103.338 79.5084 99.8238C75.0443 97.1905 61.9979 89.0154 57.4059 85.0609C57.0174 84.7256 56.5863 84.3822 56.1273 84.027L67.4041 75.7518C68.3888 75.028 68.6016 73.6415 67.879 72.6556C67.1553 71.6708 65.7701 71.458 64.784 72.1804L52.4908 81.2032C47.7697 77.3298 42.2733 71.3676 41.2459 59.3936C40.8959 55.052 43.4959 51.9011 45.5502 50.3923Z" fill="#F57F17"/>
<path d="M12.1112 26.4362C19.9698 26.4202 35.2116 37.5573 40.1961 40.9303C44.5697 44.9195 45.7075 42.2968 43.431 39.9697C40.2842 36.7537 37.511 32.6181 24.8732 25.9533C18.5329 22.6108 16.4426 21.0871 18.4398 18.9782C20.4384 16.8693 25.9296 19.5225 24.4953 17.7486C23.0621 15.9724 20.9065 9.45635 22.9557 7.95145C25.0037 6.44795 30.5734 10.4582 31.8361 12.3596C33.1001 14.2609 32.2166 8.22557 34.8272 6.95217C37.4365 5.67737 38.2641 8.13095 39.5534 15.1805C42.1202 29.2342 45.2335 33.1209 47.3572 37.0888C48.894 39.9575 51.7374 39.6567 49.244 34.2892C47.5194 28.5236 41.4679 10.6445 43.8404 3.15048C46.2115 -4.34214 53.2025 3.31145 51.554 7.71577C56.5729 2.94448 58.2589 10.9624 54.0036 19.4836C52.971 21.5527 50.9473 30.1709 55.941 39.6593L49.6247 44.2935L43.3083 48.9294C35.7559 41.3196 26.9261 40.665 24.6441 41.0295C15.2408 42.5318 8.09558 38.5228 14.1524 35.1643C9.45665 35.415 4.25286 26.4521 12.1112 26.4362Z" fill="#2E7D32"/>
</g>
<defs>
<clipPath id="clip0_4615_2">
<rect width="102" height="102" fill="white" transform="matrix(-1 0 0 1 102 0)"/>
</clipPath>
</defs>
</svg>
