<svg width="182" height="36" viewBox="0 0 182 36" fill="none" xmlns="http://www.w3.org/2000/svg">
<path d="M36.8583 28.8621V7.19435H45.4575C47.1105 7.19435 48.5188 7.50823 49.6826 8.13597C50.8461 8.75666 51.733 9.62069 52.3429 10.7281C52.9604 11.8284 53.2689 13.0979 53.2689 14.5368C53.2689 15.9757 52.9567 17.2453 52.3323 18.3456C51.708 19.4459 50.8036 20.3029 49.6186 20.9165C48.4407 21.5302 47.0147 21.837 45.3405 21.837H39.8596V18.1658H44.5953C45.4822 18.1658 46.213 18.0141 46.7877 17.7108C47.3696 17.4005 47.8023 16.9738 48.0861 16.4306C48.377 15.8805 48.5225 15.2492 48.5225 14.5368C48.5225 13.8174 48.377 13.1897 48.0861 12.6536C47.8023 12.1105 47.3696 11.6908 46.7877 11.3946C46.2058 11.0913 45.4682 10.9397 44.5741 10.9397H41.4667V28.8621H36.8583ZM58.6143 29.1583V25.4342H59.7956C60.3844 25.4342 60.8598 25.3636 61.2216 25.2226C61.5834 25.0745 61.8706 24.8593 62.0835 24.5772C62.3036 24.288 62.4881 23.9283 62.637 23.498L62.903 22.7892L54.9852 7.19435H59.7528L64.8825 17.8589L69.1716 7.19435H73.8755L66.3619 24.6089C66.0001 25.413 65.5709 26.1607 65.0742 26.8519C64.5847 27.5431 63.9566 28.1003 63.1905 28.5235C62.4241 28.9467 61.4451 29.1583 60.2532 29.1583H58.6143ZM76.3685 28.8621V7.19435H90.8314V10.9714H80.9766V15.2034H84.5204C86.2446 15.2034 87.7309 15.482 88.9796 16.0392C90.2355 16.5893 91.2039 17.3687 91.885 18.3773C92.5662 19.386 92.9068 20.5745 92.9068 21.9428C92.9068 23.3041 92.5662 24.5067 91.885 25.5505C91.2039 26.5874 90.2355 27.3985 88.9796 27.9839C87.7309 28.5694 86.2446 28.8621 84.5204 28.8621H76.3685ZM80.9766 25.1803H84.5204C85.3436 25.1803 86.0389 25.0321 86.6064 24.7359C87.1739 24.4326 87.6032 24.0341 87.8941 23.5404C88.1923 23.0396 88.3412 22.493 88.3412 21.9005C88.3412 21.04 88.0112 20.3135 87.3513 19.721C86.6988 19.1215 85.7551 18.8217 84.5204 18.8217H80.9766V25.1803ZM95.8893 7.19435H100.487V20.8213H100.668L110.086 7.19435H114.12V28.8621H109.512V15.2245H109.352L99.8802 28.8621H95.8893V7.19435Z" fill="#F57F17"/>
<path d="M131.113 28.8621L124.11 19.6258H122.535V28.8621H117.927V7.19435H122.535V15.8488H123.461L130.698 7.19435H136.434L127.931 17.2453L136.828 28.8621H131.113ZM157.945 18.0282C157.945 20.3911 157.495 22.4012 156.594 24.0588C155.7 25.7163 154.48 26.9824 152.933 27.857C151.393 28.7245 149.662 29.1583 147.739 29.1583C145.802 29.1583 144.064 28.721 142.524 27.8464C140.985 26.9718 139.768 25.7057 138.874 24.0482C137.98 22.3907 137.533 20.384 137.533 18.0282C137.533 15.6654 137.98 13.6552 138.874 11.9977C139.768 10.3401 140.985 9.07759 142.524 8.21002C144.064 7.33544 145.802 6.89813 147.739 6.89813C149.662 6.89813 151.393 7.33544 152.933 8.21002C154.48 9.07759 155.7 10.3401 156.594 11.9977C157.495 13.6552 157.945 15.6654 157.945 18.0282ZM153.273 18.0282C153.273 16.4977 153.043 15.2069 152.582 14.1559C152.128 13.105 151.486 12.308 150.655 11.7649C149.825 11.2218 148.853 10.9502 147.739 10.9502C146.626 10.9502 145.653 11.2218 144.823 11.7649C143.993 12.308 143.348 13.105 142.886 14.1559C142.432 15.2069 142.205 16.4977 142.205 18.0282C142.205 19.5588 142.432 20.8495 142.886 21.9005C143.348 22.9514 143.993 23.7484 144.823 24.2915C145.653 24.8346 146.626 25.1062 147.739 25.1062C148.853 25.1062 149.825 24.8346 150.655 24.2915C151.486 23.7484 152.128 22.9514 152.582 21.9005C153.043 20.8495 153.273 19.5588 153.273 18.0282ZM161.359 28.8621V7.19435H165.967V16.1344H175.322V7.19435H179.919V28.8621H175.322V19.9114H165.967V28.8621H161.359Z" fill="#2E7D32"/>
<mask id="mask0_6_13" style="mask-type:luminance" maskUnits="userSpaceOnUse" x="0" y="0" width="32" height="32">
<path d="M0 0H31.8422V31.6552H0V0Z" fill="white"/>
</mask>
<g mask="url(#mask0_6_13)">
<path d="M14.2198 15.639L15.9212 14.3981L17.6223 13.1572C18.2639 12.6889 19.4458 12.2124 20.706 12.7199C21.7814 13.1597 22.6437 13.673 23.3437 14.2243L19.879 16.7523C19.5712 16.9765 19.5047 17.4064 19.7307 17.7124C19.9567 18.0184 20.3891 18.0845 20.6969 17.8598L24.3747 15.1769C25.9466 16.8915 26.3478 18.7642 26.8366 19.8932C27.0377 20.3578 27.2728 21.0346 27.5158 21.8018L25.404 23.3425C25.0962 23.5671 25.0297 23.9974 25.2557 24.3034C25.4812 24.6089 25.914 24.6751 26.2219 24.4508L27.9387 23.1983C28.4608 24.9922 28.9535 26.9082 29.1641 27.8109C29.6529 29.902 28.9265 30.6949 28.293 31.1571C27.6591 31.6195 26.6813 32.0704 24.8208 30.9798C23.4272 30.1626 19.3544 27.6255 17.9209 26.3982C17.7996 26.2942 17.665 26.1876 17.5217 26.0773L21.0421 23.5092C21.3495 23.2846 21.4159 22.8543 21.1904 22.5483C20.9644 22.2427 20.532 22.1766 20.2242 22.4008L16.3865 25.201C14.9127 23.9989 13.1968 22.1486 12.8761 18.4325C12.7668 17.0851 13.5785 16.1072 14.2198 15.639Z" fill="#F57F17"/>
<path d="M3.78086 8.20434C6.23415 8.19937 10.9923 11.6557 12.5484 12.7025C13.9137 13.9405 14.2689 13.1266 13.5582 12.4044C12.5759 11.4063 11.7101 10.1229 7.76488 8.05447C5.78558 7.01715 5.13303 6.54427 5.75651 5.88979C6.38043 5.2353 8.09467 6.05871 7.64691 5.50819C7.1995 4.95695 6.52656 2.93473 7.16628 2.46769C7.80562 2.00109 9.54436 3.24565 9.93855 3.83574C10.3331 4.4258 10.0573 2.55276 10.8723 2.15757C11.6869 1.76194 11.9452 2.5234 12.3477 4.71119C13.149 9.07268 14.1209 10.2789 14.7839 11.5103C15.2637 12.4006 16.1513 12.3073 15.3729 10.6415C14.8345 8.85215 12.9454 3.30347 13.686 0.977736C14.4262 -1.34756 16.6087 1.02769 16.0941 2.39455C17.6608 0.913805 18.1872 3.40212 16.8588 6.04664C16.5364 6.68877 15.9047 9.36339 17.4636 12.3081L15.4918 13.7463L13.5199 15.185C11.1622 12.8233 8.40575 12.6202 7.69336 12.7333C4.75786 13.1995 2.52727 11.9554 4.41808 10.9131C2.95217 10.9909 1.32766 8.20927 3.78086 8.20434Z" fill="#F57F17"/>
</g>
</svg>
