<svg width="268" height="53" viewBox="0 0 268 53" fill="none" xmlns="http://www.w3.org/2000/svg">
<path d="M54.2749 42.4914V10.5917H66.9376C69.3716 10.5917 71.4453 11.0538 73.159 11.9779C74.8723 12.8917 76.1783 14.1638 77.0765 15.7941C77.9858 17.414 78.44 19.2831 78.44 21.4014C78.44 23.5198 77.9803 25.3889 77.0609 27.0088C76.1415 28.6287 74.8098 29.8904 73.0648 30.7938C71.3304 31.6972 69.2305 32.1489 66.7652 32.1489H58.6944V26.744H65.6679C66.9739 26.744 68.05 26.5208 68.8963 26.0743C69.7532 25.6174 70.3903 24.9891 70.8082 24.1896C71.2366 23.3796 71.4508 22.4502 71.4508 21.4014C71.4508 20.3423 71.2366 19.4181 70.8082 18.6289C70.3903 17.8293 69.7532 17.2115 68.8963 16.7754C68.0394 16.3288 66.9532 16.1056 65.6366 16.1056H61.0609V42.4914H54.2749ZM86.3112 42.9275V37.4447H88.0507C88.9177 37.4447 89.6178 37.3409 90.1506 37.1332C90.6834 36.9152 91.1063 36.5985 91.4198 36.1831C91.7439 35.7574 92.0156 35.2278 92.2348 34.5943L92.6265 33.5507L80.9673 10.5917H87.9877L95.5414 26.2923L101.857 10.5917H108.784L97.7199 36.2298C97.1871 37.4136 96.555 38.5143 95.8236 39.5319C95.1028 40.5496 94.1779 41.3699 93.0499 41.9929C91.9213 42.616 90.4797 42.9275 88.7246 42.9275H86.3112ZM112.455 42.4914V10.5917H133.752V16.1523H119.24V22.3827H124.459C126.998 22.3827 129.186 22.7929 131.025 23.6132C132.874 24.4232 134.3 25.5706 135.303 27.0555C136.306 28.5404 136.808 30.2902 136.808 32.3046C136.808 34.3088 136.306 36.0792 135.303 37.6161C134.3 39.1425 132.874 40.3367 131.025 41.1986C129.186 42.0604 126.998 42.4914 124.459 42.4914H112.455ZM119.24 37.0709H124.459C125.671 37.0709 126.695 36.8529 127.53 36.4167C128.366 35.9702 128.998 35.3835 129.427 34.6566C129.866 33.9194 130.085 33.1146 130.085 32.2424C130.085 30.9755 129.599 29.9059 128.627 29.0337C127.666 28.151 126.277 27.7097 124.459 27.7097H119.24V37.0709ZM141.2 10.5917H147.97V30.6536H148.236L162.105 10.5917H168.045V42.4914H161.259V22.4139H161.024L147.076 42.4914H141.2V10.5917Z" fill="#F57F17"/>
<path d="M193.068 42.4914L182.756 28.8935H180.437V42.4914H173.651V10.5917H180.437V23.3329H181.8L192.457 10.5917H200.904L188.382 25.3889L201.483 42.4914H193.068ZM232.579 26.5415C232.579 30.0202 231.916 32.9796 230.589 35.4199C229.273 37.8601 227.476 39.724 225.198 41.0117C222.931 42.2889 220.382 42.9275 217.55 42.9275C214.698 42.9275 212.139 42.2837 209.871 40.9961C207.604 39.7085 205.813 37.8445 204.496 35.4043C203.18 32.964 202.522 30.0098 202.522 26.5415C202.522 23.0629 203.18 20.1034 204.496 17.6632C205.813 15.223 207.604 13.3642 209.871 12.087C212.139 10.7994 214.698 10.1556 217.55 10.1556C220.382 10.1556 222.931 10.7994 225.198 12.087C227.476 13.3642 229.273 15.223 230.589 17.6632C231.916 20.1034 232.579 23.0629 232.579 26.5415ZM225.699 26.5415C225.699 24.2882 225.36 22.3879 224.681 20.8407C224.012 19.2935 223.067 18.1201 221.844 17.3205C220.622 16.521 219.191 16.1212 217.55 16.1212C215.91 16.1212 214.479 16.521 213.257 17.3205C212.034 18.1201 211.084 19.2935 210.404 20.8407C209.736 22.3879 209.402 24.2882 209.402 26.5415C209.402 28.7949 209.736 30.6951 210.404 32.2424C211.084 33.7896 212.034 34.963 213.257 35.7625C214.479 36.5621 215.91 36.9619 217.55 36.9619C219.191 36.9619 220.622 36.5621 221.844 35.7625C223.067 34.963 224.012 33.7896 224.681 32.2424C225.36 30.6951 225.699 28.7949 225.699 26.5415ZM237.606 42.4914V10.5917H244.391V23.7534H258.167V10.5917H264.936V42.4914H258.167V29.3141H244.391V42.4914H237.606Z" fill="#2E7D32"/>
<mask id="mask0_90_368" style="mask-type:luminance" maskUnits="userSpaceOnUse" x="0" y="0" width="47" height="47">
<path d="M0.000164032 0H46.8887V46.6034H0.000164032V0Z" fill="white"/>
</mask>
<g mask="url(#mask0_90_368)">
<path d="M20.9391 23.0241L23.4444 21.1972L25.9493 19.3703C26.8942 18.6809 28.6345 17.9793 30.4903 18.7265C32.0739 19.374 33.3436 20.1296 34.3743 20.9413L29.2725 24.6631C28.8192 24.9932 28.7213 25.6261 29.0541 26.0766C29.3868 26.5271 30.0236 26.6244 30.4769 26.2937L35.8925 22.3438C38.2071 24.8681 38.7979 27.6251 39.5178 29.2872C39.8139 29.9711 40.16 30.9676 40.5178 32.0971L37.4082 34.3653C36.9549 34.696 36.857 35.3295 37.1898 35.78C37.5219 36.2298 38.1592 36.3272 38.6125 35.997L41.1406 34.1531C41.9094 36.794 42.6348 39.6148 42.945 40.9438C43.6648 44.0224 42.5951 45.1897 41.6623 45.8701C40.7288 46.5509 39.289 47.2148 36.5494 45.6091C34.4973 44.406 28.5 40.6708 26.3891 38.864C26.2105 38.7108 26.0123 38.5539 25.8013 38.3916L30.9852 34.6107C31.4378 34.28 31.5356 33.6465 31.2035 33.1961C30.8708 32.7461 30.234 32.6489 29.7807 32.979L24.1297 37.1015C21.9594 35.3317 19.4328 32.6076 18.9605 27.1367C18.7996 25.1531 19.9948 23.7134 20.9391 23.0241Z" fill="#F57F17"/>
<path d="M5.56731 12.0786C9.17984 12.0713 16.1864 17.1598 18.4777 18.7009C20.4882 20.5236 21.0112 19.3252 19.9648 18.262C18.5182 16.7926 17.2434 14.9031 11.4339 11.858C8.51931 10.3308 7.55842 9.63461 8.47651 8.67106C9.39525 7.70751 11.9195 8.91975 11.2602 8.10926C10.6013 7.29772 9.61044 4.32056 10.5524 3.63297C11.4939 2.94603 14.0542 4.7783 14.6347 5.64704C15.2157 6.51574 14.8096 3.75822 16.0097 3.17641C17.2091 2.59395 17.5896 3.71499 18.1823 6.9359C19.3622 13.357 20.7933 15.1328 21.7696 16.9457C22.476 18.2564 23.7831 18.119 22.6369 15.6666C21.8442 13.0323 19.0623 4.86342 20.1529 1.43943C21.2429 -1.98393 24.4566 1.51297 23.6988 3.52529C26.006 1.34531 26.781 5.00867 24.8249 8.90197C24.3502 9.84734 23.4199 13.785 25.7155 18.1202L22.8119 20.2375L19.9083 22.3557C16.4366 18.8788 12.3776 18.5797 11.3286 18.7462C7.00596 19.4326 3.72137 17.6009 6.50563 16.0664C4.34704 16.181 1.9549 12.0859 5.56731 12.0786Z" fill="#F57F17"/>
</g>
</svg>
